# xmcd
#
# Track frame offsets: 
#        150
#        12257
#        23808
#        42650
#        60998
#        79868
#        91104
#        107162
#        125548
#        144365
#        157682
#        169998
#        183149
#        199586
#        212704
#        229965
#        244173
#
# Disc length: 3337 seconds
#
# Revision: 0
# Processed by: cddbd v1.5.2PL0 Copyright (c) Steve Scherf et al.
# Submitted via: ExactAudioCopyFreeDBPlugin 1.0
#
DISCID=d90d0711
DTITLE=Holly´s Cat - The songs You love
DYEAR=2016
DGENRE=Swing
TTITLE0=That´s my desire
TTITLE1=True Love
TTITLE2=The windmills of your mind
TTITLE3=Try to remember
TTITLE4=God only knows
TTITLE5=You took advantage of me
TTITLE6=The man I love
TTITLE7=When I look in your eyes
TTITLE8=Everytime we say goodbye
TTITLE9=Someday my prince will come - Prolog
TTITLE10=Someday my prince will come
TTITLE11=Here´s that rainy day
TTITLE12=Moon river
TTITLE13=Bye bye blackbird
TTITLE14=Eu sei que vou te amar
TTITLE15=This guys in love with you
TTITLE16=Geheimtrack
EXTD=
EXTT0=
EXTT1=
EXTT2=
EXTT3=
EXTT4=
EXTT5=
EXTT6=
EXTT7=
EXTT8=
EXTT9=
EXTT10=
EXTT11=
EXTT12=
EXTT13=
EXTT14=
EXTT15=
EXTT16=
PLAYORDER=
